<svg version="1" xmlns="http://www.w3.org/2000/svg" width="800" height="800" viewBox="0 0 600.000000 600.000000"><path d="M276.5 12.6c-1.6.2-7.3.9-12.5 1.5-49.5 5.5-100.3 26.6-142 59-12.1 9.3-32.8 29.5-43.7 42.4-33.3 39.6-55.4 89.2-64 143.5-2.6 16.5-2.6 64.5 0 81 8.3 53.3 28.3 99.4 60.5 139.6 62.8 78.5 161.6 118.5 261.1 105.9 52-6.7 103.1-28.3 144.1-61.1 12-9.6 35.2-33 45-45.4 60.7-76.6 78.6-178 47.8-270.4-30.5-91.4-106.5-162.9-199-187.1-15.4-4-32-7-46.7-8.5-9.5-.9-43.6-1.2-50.6-.4zm65.3 5.3c75.7 11.7 141.7 51.5 187.7 113.3l2.7 3.8H66.9l7.8-10.3c9.7-12.8 35.7-39 48.3-48.7 42.3-32.6 91.8-53.3 141-58.9 5.2-.6 10.9-1.3 12.5-1.5 1.7-.2 14-.3 27.5-.1 18.4.2 27.8.8 37.8 2.4zM175.2 149.2c-.9.9-1.2 8.3-1.2 27V202h6.5c3.6 0 6.5.1 6.5.3 0 .2-13.2 24.2-29.3 53.3-16.2 29.1-29.9 53.9-30.6 55.2l-1.2 2.2h369.6l7.6-14.8 7.5-14.7 4.7-.3 4.7-.3v20.4c0 18.5-.2 20.5-1.8 22-1.7 1.6-18 1.7-219.2 1.5l-217.3-.3-1.9-2.6-2-2.6 43-77.4c23.6-42.6 43.5-78.4 44.1-79.7l1.2-2.2h-62.7l-7.8 15-7.7 15H78v-19.5c0-19.5 0-19.6 2.5-22l2.4-2.5h46.8c36.3 0 46.4.3 45.5 1.2zm342.6.4c2.2 1.5 2.2 2 2.2 22v20.5l-4.7-.3-4.8-.3-7.5-14.7-7.5-14.8H460v61.8c0 57.7.1 62 1.8 63.4.9.8 5.5 2.5 10.2 3.8 11.1 2.9 12 3.4 12 7v3l-42.7-.2-42.8-.3-.3-3.2c-.3-3-.1-3.2 5.5-4.7 16.6-4.7 16.7-4.7 17.5-9.1.4-2.2.7-30.4.7-62.8l.1-58.7H209.5l-8.1 14.8-8.2 14.7-4.6.3-4.6.3v-20c0-18.8.1-20.2 2-22.1 2-2 3.3-2 165.8-2 146.6 0 164 .2 166 1.6zm-237.3 68.3c9.4 23.6 17.3 43.2 17.6 43.5.3.3 8.5-19.1 18.3-43.2l17.8-43.7h43.9l-.3 2.4c-.3 2-1.2 2.7-6 4-3.1.9-6.2 2.1-6.8 2.7-.7.7-.9 17.7-.8 53.9l.3 52.9 6.8 2c6.6 1.8 6.7 2 6.7 5.2v3.4h-54v-3.4c0-3.2.3-3.4 5.7-5.2 4.5-1.5 5.9-2.4 6.4-4.4.4-1.4.7-22.1.7-46 0-43.3 0-43.5-1.8-39.5-1.1 2.2-10.6 25.3-21.2 51.2L294.6 301h-8.2l-20-49.8-19.9-49.7-.3 42.8c-.1 27.7.1 43.5.8 44.7.6 1.1 3.5 2.7 6.5 3.6 5.2 1.7 5.5 1.9 5.5 5.1v3.3l-20.2-.2-20.3-.3-.3-3.1c-.3-3-.1-3.2 6-4.8 3.5-1 6.9-2.5 7.6-3.4.9-1.2 1.2-13.3 1.2-52.3 0-27.9-.3-51.4-.6-52.3-.3-.9-3.6-2.5-7.5-3.6-5.8-1.8-6.9-2.4-6.9-4.3v-2.2l22.7.2 22.8.1 17 43.1zm300.9 125.3c-6 33.8-13.5 56.9-26.9 83.8-33.2 66.4-90.5 117-161 142-63 22.3-136.9 20.7-199.3-4.4-91.5-36.8-157.8-117.9-175.1-214.2L17.3 340h564.6l-.5 3.2z"/><path d="M273 30.1c-20.3 1.9-43.5 6.7-63.2 13.1l-9.7 3.2-.3 9-.3 9-11 4.6c-11.5 4.9-31.6 14.8-35 17.3-1.8 1.4-1.4 1.7 6 5.5 4.4 2.3 8.6 4.5 9.4 5 1 .8-.6 4.1-7.8 15.5-5 8-9.1 14.8-9.1 15 0 .2 7.8-3.5 17.3-8.3 17.1-8.6 34.8-15.6 50.4-20l8.2-2.3.3-9.1.3-9.1 8-1.7c22.5-4.9 35.2-6.2 61.5-6.2 16.2-.1 29 .4 35 1.2 10.7 1.5 28.6 4.8 34.3 6.3l3.7 1V96.8l7.3 2.1c19.6 5.7 41 14.6 58.7 24.2 4.7 2.5 8.7 4.5 8.9 4.3.2-.2-3.8-6.9-8.9-15-7-11.2-8.8-14.9-7.8-15.5.7-.5 4.9-2.8 9.2-5 7.4-3.9 7.8-4.3 6-5.6-3-2.3-28.1-14.7-37.1-18.3l-8.2-3.4-.3-9-.3-9.1-8.5-2.8c-36.2-12.1-79.1-17-117-13.6zM90.5 353.8c-5.1 2.4-10.1 8-11.4 12.9-1.5 5.1-1.5 73.5 0 78.6 1.3 4.7 6 10.2 11 12.8 3.6 1.8 6.3 1.9 52.4 1.9H191v-2.4c0-2.9-3.5-8.2-7.3-11-2.8-2-4-2.1-43.3-2.4-39-.3-40.4-.3-41.4-2.2-.7-1.3-1-13.8-.8-37 .3-29.9.5-35.2 1.8-36 .9-.6 14.3-1 31.3-1H161l-.6-2.8c-1.1-4.7-3.2-8-6.6-10.4-3.2-2.3-3.8-2.3-31.3-2.6-25.4-.2-28.4 0-32 1.6zM369 362.4v6.6h6.5c3.6 0 6.5-.2 6.5-.5s-.6-2-1.4-3.8c-1.7-4-5.3-7.3-8.8-8.2l-2.8-.7v6.6zM328 390.7c0 32.1.1 34 2 37.1 3 5 7.1 6.2 20.5 6.2 7.2 0 11.5-.4 11.5-1s-.6-2.6-1.4-4.5c-2.1-4.9-6.8-7.5-13.8-7.5H341v-29h10c11.2 0 12.3-.6 9.6-5.8-2.8-5.4-6.1-7.2-13.2-7.2H341v-4.8c0-2.6-.5-6.4-1-8.4-1.2-4.3-6.1-8.8-9.6-8.8H328v33.7z"/><path d="M151.9 382.9l-3.9 3.9V434h12v-42h15.5c15 0 15.5-.1 15.5-2 0-3.4-2.8-7.9-6-9.5-2.2-1.1-6.3-1.5-16.1-1.5h-13.1l-3.9 3.9zM203.2 381c-5.4 3.3-6.2 6.7-6.2 25.8 0 15.9.1 17.1 2.3 20.3 4.2 6.4 6.5 6.9 31.6 6.9h22.4l-.7-3.2c-.3-1.7-1.4-4-2.4-5.1-3.7-4.2-6.4-4.7-23.7-4.7H210v-8h43v-12.3c0-10.3-.3-12.7-2-15.4-3.5-5.7-5.8-6.3-26.2-6.3-16.6 0-18.6.2-21.6 2zm36.8 15v4h-30v-8h30v4zM269.1 380.2c-3.1 1.7-6 5.7-6.3 8.8l-.3 2.5 21.3.3 21.2.2v8h-43.2l.4 12.4c.3 10.7.6 12.9 2.4 15.3 4.3 5.8 6.7 6.3 31.2 6.3h22.3l-.3-24-.3-24-3.3-3.2-3.2-3.3-19.8-.3c-14.4-.2-20.3.1-22.1 1zM305 417v4h-30v-8h30v4zM369 406.5v27.6l6.3-.3 6.2-.3.3-27.3.2-27.2h-13v27.5zM392.3 387.2c2.5 4.6 9.3 16.8 15 27.3l10.5 19 5.8.3 5.9.2 14.8-26.8c8.1-14.8 14.7-27.2 14.7-27.6 0-1.3-5.6-.5-9.5 1.3-6.1 2.8-9.6 7.3-18 22.9l-7.8 14.3-7.4-13.8c-4.2-7.6-8.6-15.2-9.9-16.9-2.7-3.7-11.5-8.4-15.7-8.4h-2.9l4.5 8.2zM470.3 381c-5.9 3.6-6.5 6-6.1 26.5.3 18 .3 18.4 2.8 21 4.9 5.3 6.2 5.5 30.5 5.5 14.8 0 22.5-.4 22.5-1 0-2.9-3.3-8.2-6.2-10-3-1.8-5-2-20-2H477v-8l21.3-.2 21.2-.3.3-11.2c.3-13-.9-17.2-6-20.3-3-1.8-5-2-21.8-2-16.6 0-18.8.2-21.7 2zm36.7 15v4h-30v-8h30v4zM192 446.1c4.4 2.5 8 7.6 8 11.2v2.7h320v-2.4c0-2.9-3.6-8.2-7.3-11l-2.8-2.1-160.7-.2-160.7-.3 3.5 2.1zM152 471.6c0 .2 4.1 7 9.1 15 7.2 11.5 8.9 14.8 7.8 15.5-.8.5-5 2.8-9.3 5-7.4 3.9-7.8 4.3-6 5.6 3.3 2.4 26.5 13.8 36.1 17.8l9.2 3.8.3 9 .3 9 7 2.4c57.1 19.5 121 20 179.8 1.6l11.7-3.7v-18.1l8.8-3.4c8.9-3.5 34.2-15.9 37.6-18.4 1.7-1.3 1.2-1.7-7-6.2-4.9-2.6-9-4.9-9.2-5-.2-.2 3.8-6.8 8.7-14.9 5-8 9.1-14.7 9.1-15 0-.2-6.4 2.9-14.2 6.9-16 8.2-31.3 14.5-49.5 20.1l-12.2 3.8-.3 9-.3 9-10.5 2.3c-39.5 8.4-85 8.1-123.2-.8l-8.8-2.1v-8.9c0-6.3-.4-9.1-1.2-9.3-23.7-6.8-41.6-13.8-60.5-23.6-7.3-3.8-13.3-6.7-13.3-6.4z"/></svg>